<?xml version="1.0" standalone="no"?>
<!DOCTYPE svg PUBLIC "-//W3C//DTD SVG 20010904//EN"
 "http://www.w3.org/TR/2001/REC-SVG-20010904/DTD/svg10.dtd">
<svg version="1.0" xmlns="http://www.w3.org/2000/svg"
 width="512.000000pt" height="512.000000pt" viewBox="0 0 512.000000 512.000000"
 preserveAspectRatio="xMidYMid meet">
<metadata>
Created by potrace 1.11, written by Peter Selinger 2001-2013
</metadata>
<g transform="translate(0.000000,512.000000) scale(0.100000,-0.100000)"
fill="#000000" stroke="none">
<path d="M2295 5109 c-124 -13 -360 -62 -476 -98 -806 -248 -1431 -860 -1693
-1656 -42 -127 -78 -282 -103 -439 -24 -156 -24 -556 0 -712 91 -576 333
-1059 727 -1454 392 -392 887 -641 1445 -726 170 -26 560 -26 730 0 1132 173
2001 1041 2170 2166 36 241 30 578 -15 829 -164 908 -822 1670 -1698 1966
-131 45 -312 89 -452 110 -127 20 -505 28 -635 14z m536 -1284 c187 -32 403
-136 499 -239 l24 -27 -121 -121 -120 -120 -61 59 c-241 237 -683 224 -849
-26 -48 -71 -69 -155 -59 -242 13 -128 84 -222 219 -288 45 -22 186 -74 312
-116 127 -43 266 -95 311 -117 280 -137 408 -351 390 -653 -12 -208 -78 -351
-226 -488 -348 -322 -1038 -281 -1395 82 -52 53 -57 63 -45 75 32 30 255 216
260 216 3 0 19 -19 35 -41 65 -88 193 -174 320 -216 94 -30 253 -37 345 -14
143 35 260 123 316 237 26 54 29 69 29 164 0 94 -3 111 -28 161 -35 73 -115
148 -207 194 -40 20 -174 70 -299 111 -124 41 -267 95 -316 119 -192 95 -318
240 -360 417 -20 84 -20 276 0 353 57 225 245 410 493 485 164 50 371 64 533
35z"/>
</g>
</svg>
